<?xml version="1.0" encoding="utf-8"?>
<!-- Generator: Adobe Illustrator 19.0.1, SVG Export Plug-In . SVG Version: 6.00 Build 0)  -->
<svg version="1.1" id="Layer_1" xmlns="http://www.w3.org/2000/svg" xmlns:xlink="http://www.w3.org/1999/xlink" x="0px" y="0px"
	 viewBox="0 0 161 180" enable-background="new 0 0 161 180" xml:space="preserve">
<g>
	<circle fill="#FEBF10" cx="122.9" cy="132" r="14.9"/>
	<path fill="#FEBF10" d="M84.5,84.1c1.6,0,2.8-1.3,2.8-2.8V49.9h2.9c1.6,6.5,7.5,11.2,14.4,11.2c8.2,0,14.9-6.7,14.9-14.9
		s-6.7-14.9-14.9-14.9c-7.6,0-13.8,5.6-14.8,12.9h-5.4c-1.6,0-2.8,1.3-2.8,2.8v34.2C81.6,82.9,82.9,84.1,84.5,84.1z"/>
	<path fill="#FEBF10" d="M84.5,117.1c1.6,0,2.8-1.3,2.8-2.8v-6.2l4.9-14.8h20.1c1.6,0,2.8-1.3,2.8-2.8V77.6h15.7
		c1.6,0,2.8-1.3,2.8-2.8s-1.3-2.8-2.8-2.8h-18.5c-1.6,0-2.8,1.3-2.8,2.8v12.9H94.1l1.8-5.5c0.1-0.3,0.1-0.6,0.1-0.9v-6.5
		c0-1.6-1.3-2.8-2.8-2.8s-2.8,1.3-2.8,2.8v6.1l-8.7,25.9c-0.1,0.3-0.1,0.6-0.1,0.9v6.6C81.6,115.8,82.9,117.1,84.5,117.1z"/>
	<path fill="#FEBF10" d="M90.5,108.6v15.8c0,1.6,1.3,2.8,2.8,2.8s2.8-1.3,2.8-2.8v-15.8c0-1.6-1.3-2.8-2.8-2.8
		S90.5,107.1,90.5,108.6z"/>
	<path fill="#FEBF10" d="M28.2,90.8c0,1.6,1.3,2.8,2.8,2.8s2.8-1.3,2.8-2.8v-6.7h6.7c0.8,0,1.6-0.4,2.1-1c0.5,0.6,1.3,1,2.1,1h30.8
		c1.6,0,2.8-1.3,2.8-2.8V47.1c0-0.2,0-0.3,0-0.4c0-0.1,0-0.3,0-0.4c0-8.2-6.7-14.9-14.9-14.9S48.5,38,48.5,46.2s6.7,14.9,14.9,14.9
		c3.5,0,6.7-1.2,9.3-3.2v20.6H44.8c-0.8,0-1.6,0.4-2.1,1c-0.5-0.6-1.3-1-2.1-1h-6.7v-6.7c0-1.6-1.3-2.8-2.8-2.8s-2.8,1.3-2.8,2.8
		v6.7h-6.7c-1.6,0-2.8,1.3-2.8,2.8s1.3,2.8,2.8,2.8h6.7V90.8z"/>
	<path fill="#FEBF10" d="M133.7,103.5V97c0-1.6-1.3-2.8-2.8-2.8S128,95.4,128,97v4.9l-27,16.6c-1,0.4-1.7,1.4-1.7,2.6v8.1h-21v-20.6
		c0-1.6-1.3-2.8-2.8-2.8H44.8c-0.9,0-1.7,0.4-2.2,1.1c-0.8-5-5.2-8.8-10.4-8.8c-5.8,0-10.6,4.7-10.6,10.6c0,5.8,4.7,10.6,10.6,10.6
		c5.2,0,9.6-3.8,10.4-8.8c0.5,0.7,1.3,1.1,2.2,1.1h27.9v17.7h-7.4c-0.5,0-0.9,0.1-1.3,0.3c-7.9,0.4-14.2,6.9-14.2,14.9
		c0,8.2,6.7,14.9,14.9,14.9s14.9-6.7,14.9-14.9c0-3.6-1.3-6.9-3.4-9.5h26c1.6,0,2.8-1.3,2.8-2.8v-9.3l27.3-16.8
		C133.2,105.4,133.7,104.5,133.7,103.5z"/>
</g>
</svg>
